<svg width="86" height="85" viewBox="0 0 86 85" fill="none" xmlns="http://www.w3.org/2000/svg">
<g clip-path="url(#clip0_306_1101)">
<g filter="url(#filter0_d_306_1101)">
<path d="M64.1529 69.0785V71.1501C64.1529 73.8712 61.9334 76.08 59.1993 76.08H35.6264C32.8923 76.08 30.6729 73.8712 30.6729 71.1501V11.0498C30.6729 8.32883 32.8923 6.12 35.6264 6.12H59.1993C61.9334 6.12 64.1529 8.32883 64.1529 11.0498V13.5788" fill="#857EE7"/>
<mask id="mask0_306_1101" style="mask-type:luminance" maskUnits="userSpaceOnUse" x="30" y="6" width="35" height="71">
<g opacity="0.2">
<path d="M64.1529 69.0785V71.1501C64.1529 73.8712 61.9334 76.08 59.1993 76.08H35.6264C32.8923 76.08 30.6729 73.8712 30.6729 71.1501V11.0498C30.6729 8.32883 32.8923 6.12 35.6264 6.12H59.1993C61.9334 6.12 64.1529 8.32883 64.1529 11.0498V13.5788" fill="white"/>
</g>
</mask>
<g mask="url(#mask0_306_1101)">
<path opacity="0.2" d="M32.7704 3.26089L69.9402 -11.841L101.926 63.9955L64.756 79.0973L32.7704 3.26089Z" fill="white"/>
</g>
<path d="M54.8116 11.42H40.0094C39.0275 11.42 38.2328 10.5966 38.2328 9.57919V6.12H56.5928V9.57919C56.5882 10.5966 55.7935 11.42 54.8116 11.42Z" fill="#2A1768"/>
<path d="M50.6757 70.78H44.15C43.2693 70.78 42.5529 70.0668 42.5529 69.19C42.5529 68.3132 43.2693 67.6 44.15 67.6H50.6757C51.5564 67.6 52.2729 68.3132 52.2729 69.19C52.2729 70.0668 51.5564 70.78 50.6757 70.78Z" fill="#2A1768"/>
<path d="M47.9528 42.16C49.1458 42.16 50.1128 41.2108 50.1128 40.04C50.1128 38.8691 49.1458 37.92 47.9528 37.92C46.7599 37.92 45.7928 38.8691 45.7928 40.04C45.7928 41.2108 46.7599 42.16 47.9528 42.16Z" fill="#EDB900"/>
<path d="M51.4623 49.58C50.9809 49.58 50.5148 49.2765 50.2722 48.742C49.9217 47.972 50.1682 47.0071 50.8268 46.5949C52.7218 45.4036 53.8966 43.0935 53.8966 40.5704C53.8966 38.0474 52.718 35.7372 50.8268 34.5459C50.172 34.1337 49.9217 33.1734 50.2722 32.3988C50.6227 31.6288 51.4392 31.3343 52.0979 31.7465C54.8711 33.4905 56.5928 36.8696 56.5928 40.5659C56.5928 44.2621 54.8711 47.6413 52.0979 49.3852C51.8937 49.5211 51.6742 49.58 51.4623 49.58Z" fill="#EDB900"/>
<path d="M55.2535 54.88C54.776 54.88 54.3073 54.6503 54.0095 54.2224C53.5145 53.5152 53.6722 52.5288 54.3599 52.0198C57.895 49.4028 60.0064 45.1687 60.0064 40.7004C60.0064 36.061 57.7723 31.7413 54.027 29.1423C53.3261 28.6559 53.1421 27.6739 53.6152 26.9533C54.0883 26.2326 55.0433 26.0434 55.7441 26.5298C60.3306 29.7189 63.0728 35.016 63.0728 40.7004C63.0728 46.1822 60.4839 51.3711 56.1515 54.5782C55.8756 54.7809 55.5645 54.88 55.2535 54.88Z" fill="#EDB900"/>
<path d="M62.382 60.18C61.9544 60.18 61.5269 59.9789 61.2376 59.5991C60.7304 58.9289 60.8269 57.9414 61.4598 57.4007C66.1127 53.4016 68.7786 47.4632 68.7786 41.1004C68.7786 34.7375 66.1127 28.7991 61.4598 24.8C60.831 24.2594 60.7304 23.2719 61.2376 22.6016C61.7448 21.9314 62.6712 21.8241 63.3 22.3648C68.6445 26.9582 71.7128 33.7858 71.7128 41.1004C71.7128 48.415 68.6487 55.2425 63.3 59.8359C63.0317 60.0638 62.7089 60.18 62.382 60.18Z" fill="#EDB900"/>
<path d="M67.224 65.48C66.7771 65.48 66.3347 65.2911 66.0232 64.9313C65.4544 64.2702 65.5357 63.2763 66.1948 62.7097C72.4968 57.3399 76.1082 49.5236 76.1082 41.2711C76.1082 32.8252 72.3523 24.892 65.8065 19.5087C65.1339 18.9556 65.0391 17.9617 65.5943 17.2916C66.1496 16.6215 67.1428 16.527 67.8199 17.0802C75.097 23.0616 79.2728 31.8808 79.2728 41.2711C79.2728 50.4456 75.255 59.1298 68.2533 65.1022C67.9508 65.3586 67.5852 65.48 67.224 65.48Z" fill="#EDB900"/>
<path opacity="0.2" d="M55.2445 42.16C54.5011 42.16 53.8963 41.4486 53.8963 40.574C53.8963 38.0499 52.7175 35.7389 50.8261 34.5471C50.1713 34.1347 49.9209 33.174 50.2714 32.3991C50.622 31.6288 51.4386 31.3342 52.0973 31.7466C54.8709 33.4912 56.5928 36.8717 56.5928 40.5694C56.5928 41.4486 55.988 42.16 55.2445 42.16Z" fill="white"/>
<path opacity="0.2" d="M61.5396 43.22C60.6942 43.22 60.0064 42.5648 60.0064 41.7593C60.0064 37.4608 57.7723 33.4586 54.027 31.0505C53.3261 30.5998 53.1421 29.69 53.6152 29.0223C54.0883 28.3546 55.0433 28.1793 55.7441 28.63C60.3306 31.5847 63.0728 36.4926 63.0728 41.7593C63.0728 42.5648 62.385 43.22 61.5396 43.22Z" fill="white"/>
<path opacity="0.2" d="M70.2455 42.16C69.4364 42.16 68.7783 41.4756 68.7783 40.6343C68.7783 34.4269 66.112 28.6336 61.4585 24.7321C60.8297 24.2047 60.7291 23.2413 61.2364 22.5874C61.7436 21.9335 62.6701 21.8289 63.299 22.3564C68.6441 26.8376 71.7128 33.4984 71.7128 40.6343C71.7128 41.4756 71.0547 42.16 70.2455 42.16Z" fill="white"/>
<path opacity="0.2" d="M77.6883 42.16C76.817 42.16 76.1082 41.4724 76.1082 40.6272C76.1082 32.4028 72.3523 24.6777 65.8065 19.4356C65.1339 18.8969 65.0391 17.9291 65.5943 17.2766C66.1496 16.624 67.1428 16.5321 67.8199 17.0707C75.097 22.8953 79.2728 31.4832 79.2728 40.6272C79.2683 41.4724 78.5595 42.16 77.6883 42.16Z" fill="white"/>
<path d="M59.5537 76.08H35.2719C31.5469 76.08 28.5128 73.1919 28.5128 69.6461V10.4339C28.5128 6.88807 31.5469 4 35.2719 4H59.5537C63.2835 4 66.3128 6.88807 66.3128 10.4339V12.9255C66.3128 13.7951 65.5697 14.5025 64.6562 14.5025C63.7426 14.5025 62.9995 13.7951 62.9995 12.9255V10.4339C62.9995 8.62721 61.4517 7.15389 59.5537 7.15389H35.2719C33.3739 7.15389 31.8261 8.62721 31.8261 10.4339V69.6461C31.8261 71.4528 33.3739 72.9261 35.2719 72.9261H59.5537C61.4517 72.9261 62.9995 71.4528 62.9995 69.6461V67.605C62.9995 66.7355 63.7426 66.0281 64.6562 66.0281C65.5697 66.0281 66.3128 66.7355 66.3128 67.605V69.6461C66.3128 73.1919 63.2835 76.08 59.5537 76.08Z" fill="#2A1768"/>
<path opacity="0.2" d="M64.6121 15.66C63.6742 15.66 62.9113 14.9461 62.9113 14.0684V11.5537C62.9113 9.73018 61.3223 8.24318 59.3736 8.24318C58.4358 8.24318 57.6729 7.52924 57.6729 6.65159C57.6729 5.77394 58.4358 5.06 59.3736 5.06C63.2028 5.06 66.3129 7.97488 66.3129 11.5537V14.0684C66.3129 14.9506 65.5548 15.66 64.6121 15.66Z" fill="white"/>
<path opacity="0.2" d="M54.149 7.18H50.3966C49.6446 7.18 49.0328 6.46677 49.0328 5.59C49.0328 4.71323 49.6446 4 50.3966 4H54.149C54.9011 4 55.5128 4.71323 55.5128 5.59C55.5128 6.46677 54.9011 7.18 54.149 7.18Z" fill="white"/>
<path opacity="0.2" d="M45.2406 7.18H35.5451C34.645 7.18 33.9128 6.46677 33.9128 5.59C33.9128 4.71323 34.645 4 35.5451 4H45.2406C46.1407 4 46.8728 4.71323 46.8728 5.59C46.8728 6.46677 46.1407 7.18 45.2406 7.18Z" fill="white"/>
<path opacity="0.1" d="M32.2929 34.74C31.3995 34.74 30.6729 34.0421 30.6729 33.1842V22.5158C30.6729 21.6579 31.3995 20.96 32.2929 20.96C33.1862 20.96 33.9129 21.6579 33.9129 22.5158V33.1842C33.9129 34.0465 33.1862 34.74 32.2929 34.74Z" fill="black"/>
<path opacity="0.1" d="M38.8018 43.22C38.2612 43.22 37.7297 42.9506 37.4345 42.4648L34.1366 37.0773C33.6869 36.3442 33.9368 35.3947 34.6908 34.9576C35.4449 34.5204 36.4215 34.7632 36.8712 35.4963L40.1691 40.8839C40.6188 41.617 40.3689 42.5664 39.6149 43.0036C39.3605 43.1493 39.0789 43.22 38.8018 43.22Z" fill="black"/>
<path opacity="0.1" d="M32.3908 69.72C31.4435 69.72 30.6729 69.0026 30.6729 68.1208V55.2817H36.8917C38.3789 55.2817 39.7042 54.6237 40.5239 53.4769C41.3436 52.3346 41.5006 50.9136 40.946 49.6708C40.5828 48.8575 40.9951 47.9209 41.8737 47.5827C42.7474 47.2446 43.7536 47.6284 44.1217 48.4463C45.1181 50.676 44.8432 53.221 43.3855 55.2543C41.9375 57.2738 39.5079 58.48 36.8917 58.48H34.1087V68.1208C34.1087 69.0026 33.343 69.72 32.3908 69.72Z" fill="black"/>
<path d="M25.5006 28.2371L38.3551 51.1009C39.4009 52.9582 38.0948 55.281 36.0032 55.281H10.2897C8.19813 55.281 6.89203 52.9582 7.93781 51.1009L20.7923 28.2371C21.8426 26.3752 24.4593 26.3752 25.5006 28.2371Z" fill="#DA291C"/>
<path d="M36.0077 56.894H10.2942C8.74572 56.894 7.35884 56.0737 6.58236 54.6957C5.80588 53.3177 5.80588 51.6724 6.58236 50.2944L19.4369 27.4306C20.2134 26.0526 21.6002 25.2323 23.1487 25.2323C24.6972 25.2323 26.0841 26.0526 26.8605 27.4306L39.7151 50.2944C40.4916 51.6724 40.4916 53.3177 39.7151 54.6957C38.9431 56.0737 37.5562 56.894 36.0077 56.894ZM23.1487 28.4537C22.9512 28.4537 22.4575 28.5091 22.1568 29.0391L9.30228 51.9028C9.00605 52.4328 9.20353 52.9029 9.30228 53.078C9.40102 53.2531 9.69725 53.6633 10.2942 53.6633H36.0077C36.6047 53.6633 36.9009 53.2531 36.9996 53.078C37.0984 52.9029 37.2959 52.4328 36.9996 51.9028L24.1451 29.0391C23.8444 28.5137 23.3507 28.4537 23.1487 28.4537Z" fill="#DA291C"/>
<path opacity="0.1" d="M15.9092 41.1C15.6671 41.1 15.4168 41.0356 15.1911 40.8983C14.5058 40.482 14.2678 39.5637 14.6658 38.847L18.2729 32.3112C18.671 31.5945 19.5492 31.3456 20.2345 31.7619C20.9198 32.1782 21.1578 33.0965 20.7597 33.8132L17.1526 40.349C16.8859 40.8296 16.4058 41.1 15.9092 41.1Z" fill="black"/>
<path opacity="0.1" d="M21.6211 54.88H12.0703C10.6 54.88 9.28307 54.0829 8.54577 52.7438C7.80847 51.4048 7.80847 49.8061 8.54577 48.467L12.1641 41.8839C12.5775 41.136 13.4895 40.8763 14.2013 41.3107C14.913 41.7451 15.1602 42.7034 14.7468 43.4513L11.1285 50.0345C10.8472 50.5495 11.0347 51.0063 11.1285 51.1764C11.2222 51.3466 11.5035 51.7452 12.0703 51.7452H21.6211C22.4437 51.7452 23.1128 52.4483 23.1128 53.3126C23.1128 54.1769 22.4437 54.88 21.6211 54.88Z" fill="black"/>
<path opacity="0.1" d="M32.3086 54.88H26.8771C25.9924 54.88 25.2728 54.1668 25.2728 53.29C25.2728 52.4132 25.9924 51.7 26.8771 51.7H32.3086C33.1932 51.7 33.9128 52.4132 33.9128 53.29C33.9128 54.1668 33.1978 54.88 32.3086 54.88Z" fill="black"/>
<path opacity="0.2" d="M36.4391 53.82C35.6416 53.82 34.9928 53.1987 34.9928 52.4348C34.9928 51.671 35.6416 51.0497 36.4391 51.0497C36.9887 51.0497 37.2615 50.6975 37.3524 50.5471C37.4433 50.3967 37.6251 49.993 37.3524 49.5379C36.9516 48.877 37.1912 48.0301 37.8813 47.6462C38.5714 47.2623 39.4558 47.4918 39.8566 48.1527C40.5715 49.3361 40.5715 50.7489 39.8566 51.9322C39.1417 53.1155 37.8648 53.82 36.4391 53.82Z" fill="white"/>
<path opacity="0.2" d="M36.5979 45.34C36.0327 45.34 35.4816 45.0592 35.1827 44.5601L28.7325 33.8999C28.2795 33.1557 28.5504 32.2019 29.3304 31.7697C30.1104 31.3374 31.1146 31.5959 31.5629 32.3401L38.0131 43.0003C38.4661 43.7445 38.1952 44.6982 37.4152 45.1305C37.1584 45.2731 36.8735 45.34 36.5979 45.34Z" fill="white"/>
<path opacity="0.2" d="M26.8748 31.56C26.3085 31.56 25.7563 31.3051 25.4568 30.852L23.9172 28.5459C23.6084 28.0806 23.0936 28.0321 22.883 28.0321C22.6771 28.0321 22.1624 28.0806 21.8489 28.5459C21.3949 29.2215 20.3982 29.4562 19.612 29.0638C18.8305 28.6713 18.5591 27.8055 19.013 27.1299C19.8226 25.9202 21.2686 25.2 22.883 25.2C24.4975 25.2 25.9435 25.9202 26.7531 27.1299L28.2927 29.436C28.7466 30.1116 28.4752 30.9774 27.6937 31.3699C27.4316 31.4993 27.1509 31.56 26.8748 31.56Z" fill="white"/>
<path d="M21.4712 43.5057L21.1832 37.8467C21.1352 36.8624 21.9752 36.0298 23.06 35.9864C24.1496 35.9431 25.0712 36.7019 25.1192 37.682C25.124 37.7383 25.124 37.7947 25.1192 37.8467L24.8312 43.5057C24.788 44.3426 24.0008 44.9931 23.0744 44.954C22.2008 44.915 21.5144 44.2776 21.4712 43.5057Z" fill="white"/>
<path d="M22.5728 49.58C23.4675 49.58 24.1928 48.8681 24.1928 47.99C24.1928 47.1119 23.4675 46.4 22.5728 46.4C21.6781 46.4 20.9528 47.1119 20.9528 47.99C20.9528 48.8681 21.6781 49.58 22.5728 49.58Z" fill="white"/>
<g opacity="0.2">
<path d="M49.6759 41.0427C49.6759 39.3383 48.6058 37.9518 47.2901 37.9518C45.9745 37.9518 44.9043 39.3383 44.9043 41.0427H49.6759Z" fill="white"/>
</g>
</g>
</g>
<defs>
<filter id="filter0_d_306_1101" x="0" y="0" width="85.2728" height="84.08" filterUnits="userSpaceOnUse" color-interpolation-filters="sRGB">
<feFlood flood-opacity="0" result="BackgroundImageFix"/>
<feColorMatrix in="SourceAlpha" type="matrix" values="0 0 0 0 0 0 0 0 0 0 0 0 0 0 0 0 0 0 127 0" result="hardAlpha"/>
<feOffset dy="2"/>
<feGaussianBlur stdDeviation="3"/>
<feColorMatrix type="matrix" values="0 0 0 0 0 0 0 0 0 0 0 0 0 0 0 0 0 0 0.2 0"/>
<feBlend mode="normal" in2="BackgroundImageFix" result="effect1_dropShadow_306_1101"/>
<feBlend mode="normal" in="SourceGraphic" in2="effect1_dropShadow_306_1101" result="shape"/>
</filter>
<clipPath id="clip0_306_1101">
<rect width="85.2728" height="84.08" fill="white"/>
</clipPath>
</defs>
</svg>
