<svg width="70" height="87" viewBox="0 0 70 87" fill="none" xmlns="http://www.w3.org/2000/svg">
<g clip-path="url(#clip0_306_1103)">
<g filter="url(#filter0_d_306_1103)">
<path d="M17.7351 75.5286V64.2403H25.3622C29.5953 64.2403 33.0436 60.7962 33.0436 56.559V26.1591C33.0436 15.7016 41.5515 7.1936 52.0091 7.1936H58.7971V18.4819H52.0091C47.776 18.4819 44.3277 21.926 44.3277 26.1633V56.5631C44.3277 67.0207 35.8197 75.5286 25.3622 75.5286H17.7351Z" fill="#857EE7"/>
<path d="M25.358 76.5723H17.7309C17.1548 76.5723 16.6873 76.1047 16.6873 75.5286V64.2403C16.6873 63.6642 17.1548 63.1967 17.7309 63.1967H25.358C29.0192 63.1967 31.9957 60.2201 31.9957 56.559V26.1591C31.9957 15.1255 40.9713 6.14993 52.0049 6.14993H58.7929C59.369 6.14993 59.8365 6.61749 59.8365 7.1936V18.4819C59.8365 19.058 59.369 19.5255 58.7929 19.5255H52.0049C48.3437 19.5255 45.3672 22.5021 45.3672 26.1633V56.5631C45.3713 67.5926 36.3917 76.5723 25.358 76.5723ZM18.7788 74.4849H25.3622C35.2436 74.4849 43.284 66.4445 43.284 56.5631V26.1633C43.284 21.354 47.1998 17.4382 52.0091 17.4382H57.7534V8.23726H52.0091C42.1276 8.23726 34.0872 16.2777 34.0872 26.1591V56.559C34.0872 61.3682 30.1714 65.284 25.3622 65.284H18.7788V74.4849Z" fill="#2A1768"/>
<path opacity="0.2" d="M25.3579 65.284H17.7308C17.1547 65.284 16.6871 64.8165 16.6871 64.2404C16.6871 63.6643 17.1547 63.1967 17.7308 63.1967H25.3579C29.0191 63.1967 31.9956 60.2202 31.9956 56.559V26.1591C31.9956 15.1255 40.9711 6.14996 52.0048 6.14996H58.7928C59.3689 6.14996 59.8364 6.61753 59.8364 7.19363V18.4819C59.8364 19.058 59.3689 19.5256 58.7928 19.5256C58.2167 19.5256 57.7491 19.058 57.7491 18.4819V8.23729H52.0048C42.1233 8.23729 34.0829 16.2777 34.0829 26.1591V56.559C34.0829 61.3724 30.1713 65.284 25.3579 65.284Z" fill="black"/>
<path d="M17.7349 76.5723C17.1588 76.5723 16.6913 76.1047 16.6913 75.5286V64.2404C16.6913 63.6642 17.1588 63.1967 17.7349 63.1967C18.3111 63.1967 18.7786 63.6642 18.7786 64.2404V75.5286C18.7786 76.1047 18.3111 76.5723 17.7349 76.5723Z" fill="black"/>
<path opacity="0.2" d="M25.3579 76.5723H17.7308C17.1547 76.5723 16.6871 76.1047 16.6871 75.5286C16.6871 74.9525 17.1547 74.485 17.7308 74.485H25.3579C25.934 74.485 26.4016 74.9525 26.4016 75.5286C26.4016 76.1047 25.934 76.5723 25.3579 76.5723Z" fill="white"/>
<path opacity="0.2" d="M38.8462 70.9281C38.5832 70.9281 38.316 70.828 38.1115 70.6276C37.7023 70.2226 37.6982 69.563 38.1031 69.1497C39.176 68.0602 40.1111 66.8412 40.8751 65.522C41.1631 65.0252 41.8019 64.854 42.3028 65.1421C42.7996 65.4301 42.9708 66.0688 42.6827 66.5698C41.8311 68.0393 40.7874 69.4002 39.5893 70.615C39.3847 70.8238 39.1134 70.9281 38.8462 70.9281Z" fill="white"/>
<path opacity="0.2" d="M43.3549 63.5933C43.2463 63.5933 43.1336 63.5766 43.0251 63.539C42.4782 63.3553 42.1818 62.7667 42.3655 62.2198C42.6285 61.435 42.8372 60.6293 42.9833 59.8152C43.0877 59.2475 43.6346 58.8717 44.1981 58.9761C44.7659 59.0805 45.1416 59.6232 45.0373 60.1909C44.8703 61.101 44.6365 62.0027 44.3443 62.8794C44.2023 63.3177 43.7932 63.5933 43.3549 63.5933Z" fill="white"/>
<path opacity="0.2" d="M44.3276 53.4572C43.7515 53.4572 43.2839 52.9896 43.2839 52.4135V36.5958C43.2839 36.0197 43.7515 35.5521 44.3276 35.5521C44.9037 35.5521 45.3713 36.0197 45.3713 36.5958V52.4135C45.3713 52.9896 44.9037 53.4572 44.3276 53.4572Z" fill="white"/>
<path opacity="0.2" d="M44.3276 27.2069C43.7515 27.2069 43.2839 26.7394 43.2839 26.1633C43.2839 21.5461 46.895 17.7179 51.5038 17.4549C52.0799 17.4299 52.5726 17.8599 52.606 18.436C52.6394 19.0121 52.201 19.5047 51.6249 19.5381C48.1182 19.7385 45.3754 22.6482 45.3754 26.1633C45.3713 26.7394 44.9037 27.2069 44.3276 27.2069Z" fill="white"/>
<path opacity="0.2" d="M47.9428 11.6855C47.4794 11.6855 47.0578 11.3766 46.9325 10.9049C46.7864 10.3455 47.1204 9.77773 47.6756 9.63162C49.0825 9.26425 50.5394 9.07639 52.0047 9.07639H55.8663C56.4424 9.07639 56.91 9.54395 56.91 10.1201C56.91 10.6962 56.4424 11.1637 55.8663 11.1637H52.0047C50.7189 11.1637 49.4415 11.3265 48.2058 11.6522C48.1181 11.6772 48.0305 11.6855 47.9428 11.6855Z" fill="black"/>
<path opacity="0.2" d="M36.2913 23.9799C36.2204 23.9799 36.1536 23.9716 36.0826 23.959C35.519 23.8422 35.1558 23.2911 35.2686 22.7275C36.3456 17.4675 39.9066 12.963 44.791 10.6753C45.3128 10.4331 45.9348 10.6586 46.1769 11.1804C46.4191 11.7022 46.1936 12.3243 45.6718 12.5664C41.3844 14.5744 38.2576 18.5278 37.31 23.145C37.2139 23.6418 36.7798 23.9799 36.2913 23.9799Z" fill="black"/>
<path opacity="0.2" d="M35.9658 57.6026C35.3897 57.6026 34.9221 57.1351 34.9221 56.559V26.1591C34.9221 25.583 35.3897 25.1154 35.9658 25.1154C36.5419 25.1154 37.0094 25.583 37.0094 26.1591V56.559C37.0094 57.1351 36.5419 57.6026 35.9658 57.6026Z" fill="black"/>
<path opacity="0.2" d="M25.3579 68.2105C24.7818 68.2105 24.3142 67.7429 24.3142 67.1668C24.3142 66.5907 24.7818 66.1231 25.3579 66.1231C29.5659 66.1231 33.2355 63.4221 34.492 59.4019C34.6632 58.8509 35.2518 58.5461 35.7987 58.7173C36.3498 58.8884 36.6545 59.4729 36.4833 60.0239C34.9596 64.9208 30.4885 68.2105 25.3579 68.2105Z" fill="black"/>
<path opacity="0.2" d="M25.358 73.6459H20.6573C20.0812 73.6459 19.6136 73.1783 19.6136 72.6022V67.1668C19.6136 66.5907 20.0812 66.1231 20.6573 66.1231C21.2334 66.1231 21.701 66.5907 21.701 67.1668V71.5585H25.358C32.1752 71.5585 38.145 66.9539 39.8691 60.3579C40.0152 59.7985 40.5871 59.4645 41.1424 59.6106C41.7018 59.7568 42.0316 60.3287 41.8896 60.8839C39.9234 68.3983 33.127 73.6459 25.358 73.6459Z" fill="white"/>
<path opacity="0.2" d="M41.4011 57.6026C40.825 57.6026 40.3574 57.1351 40.3574 56.559V49.5706C40.3574 48.9945 40.825 48.5269 41.4011 48.5269C41.9772 48.5269 42.4448 48.9945 42.4448 49.5706V56.559C42.4448 57.1351 41.9772 57.6026 41.4011 57.6026Z" fill="white"/>
<path opacity="0.2" d="M41.4011 50.6184C40.825 50.6184 40.3574 50.1509 40.3574 49.5748V26.1633C40.3574 25.5872 40.825 25.1196 41.4011 25.1196C41.9772 25.1196 42.4448 25.5872 42.4448 26.1633V49.5748C42.4448 50.1509 41.9772 50.6184 41.4011 50.6184Z" fill="white"/>
<path opacity="0.2" d="M41.9022 23.9799C41.7978 23.9799 41.6893 23.9632 41.5849 23.9298C41.038 23.7545 40.7333 23.1659 40.9086 22.619C42.4574 17.768 46.9201 14.5118 52.009 14.5118C52.5851 14.5118 53.0527 14.9793 53.0527 15.5554C53.0527 16.1315 52.5851 16.5991 52.009 16.5991C47.8344 16.5991 44.169 19.2751 42.8957 23.2535C42.7538 23.696 42.3447 23.9799 41.9022 23.9799Z" fill="white"/>
<path d="M14.9739 77.7001H21.2192L21.2192 62.0034H14.9739L14.9739 77.7001Z" fill="#857EE7"/>
<path d="M21.2208 78.7431H14.9755C14.3994 78.7431 13.9319 78.2756 13.9319 77.6995V62.0027C13.9319 61.4266 14.3994 60.9591 14.9755 60.9591H21.2208C21.7969 60.9591 22.2645 61.4266 22.2645 62.0027V77.6995C22.2645 78.2756 21.7969 78.7431 21.2208 78.7431ZM16.0192 76.6558H20.1772V63.0464H16.0192V76.6558Z" fill="#2A1768"/>
<path opacity="0.2" d="M17.0462 78.7431C16.4701 78.7431 16.0026 78.2756 16.0026 77.6995V62.0027C16.0026 61.4266 16.4701 60.9591 17.0462 60.9591C17.6223 60.9591 18.0899 61.4266 18.0899 62.0027V77.6995C18.0899 78.2756 17.6223 78.7431 17.0462 78.7431Z" fill="black"/>
<path opacity="0.2" d="M21.2208 78.7431C20.6447 78.7431 20.1771 78.2756 20.1771 77.6995V69.0746C20.1771 68.4985 20.6447 68.0309 21.2208 68.0309C21.7969 68.0309 22.2645 68.4985 22.2645 69.0746V77.6995C22.2645 78.2756 21.7969 78.7431 21.2208 78.7431Z" fill="white"/>
<path d="M55.893 20.7411H62.1383V5.0444H55.893V20.7411Z" fill="#857EE7"/>
<path d="M62.1409 21.7841H55.8956C55.3195 21.7841 54.8519 21.3165 54.8519 20.7404V5.04366C54.8519 4.46756 55.3195 4 55.8956 4H62.1409C62.717 4 63.1846 4.46756 63.1846 5.04366V20.7404C63.1846 21.3165 62.717 21.7841 62.1409 21.7841ZM56.9393 19.6967H61.0972V6.08733H56.9393V19.6967Z" fill="#2A1768"/>
<path opacity="0.2" d="M57.9662 21.7841C57.39 21.7841 56.9225 21.3165 56.9225 20.7404V5.04366C56.9225 4.46756 57.39 4 57.9662 4C58.5423 4 59.0098 4.46756 59.0098 5.04366V20.7404C59.0098 21.3165 58.5423 21.7841 57.9662 21.7841Z" fill="black"/>
<path opacity="0.2" d="M62.1408 21.784C61.5647 21.784 61.0972 21.3165 61.0972 20.7404V12.1155C61.0972 11.5394 61.5647 11.0719 62.1408 11.0719C62.7169 11.0719 63.1845 11.5394 63.1845 12.1155V20.7404C63.1845 21.3165 62.7169 21.784 62.1408 21.784Z" fill="white"/>
<path d="M46.8585 30.347V36.5923H31.1618V30.347H46.8585Z" fill="#857EE7"/>
<path d="M46.8616 37.6394H31.1649C30.5888 37.6394 30.1212 37.1718 30.1212 36.5957V30.3504C30.1212 29.7743 30.5888 29.3068 31.1649 29.3068H46.8616C47.4377 29.3068 47.9053 29.7743 47.9053 30.3504V36.5957C47.9053 37.1718 47.4377 37.6394 46.8616 37.6394ZM32.2044 35.5521H45.8138V31.3941H32.2044V35.5521Z" fill="#2A1768"/>
<path opacity="0.2" d="M46.8617 37.6394C46.2856 37.6394 45.818 37.1719 45.818 36.5957V30.3505C45.818 29.7744 46.2856 29.3068 46.8617 29.3068C47.4378 29.3068 47.9053 29.7744 47.9053 30.3505V36.5957C47.9053 37.1719 47.4378 37.6394 46.8617 37.6394Z" fill="white"/>
<path opacity="0.2" d="M44.1314 37.6394C43.5553 37.6394 43.0878 37.1719 43.0878 36.5957V30.3505C43.0878 29.7744 43.5553 29.3068 44.1314 29.3068C44.7075 29.3068 45.1751 29.7744 45.1751 30.3505V36.5957C45.1751 37.1719 44.7075 37.6394 44.1314 37.6394Z" fill="white"/>
<path opacity="0.2" d="M31.1607 37.6394C30.5846 37.6394 30.1171 37.1719 30.1171 36.5957V30.3505C30.1171 29.7744 30.5846 29.3068 31.1607 29.3068C31.7368 29.3068 32.2044 29.7744 32.2044 30.3505V36.5957C32.2044 37.1719 31.7368 37.6394 31.1607 37.6394Z" fill="black"/>
<path d="M44.3276 46.1641H46.8617V52.4136H31.1608V46.1641H44.3276Z" fill="#857EE7"/>
<path d="M46.8616 53.4572H31.1649C30.5888 53.4572 30.1212 52.9897 30.1212 52.4136V46.1683C30.1212 45.5922 30.5888 45.1246 31.1649 45.1246H46.8616C47.4377 45.1246 47.9053 45.5922 47.9053 46.1683V52.4136C47.9053 52.9897 47.4377 53.4572 46.8616 53.4572ZM32.2044 51.3699H45.8138V47.2119H32.2044V51.3699Z" fill="#2A1768"/>
<path opacity="0.2" d="M46.8617 53.4572C46.2856 53.4572 45.818 52.9896 45.818 52.4135V46.1682C45.818 45.5921 46.2856 45.1246 46.8617 45.1246C47.4378 45.1246 47.9053 45.5921 47.9053 46.1682V52.4135C47.9053 52.9896 47.4378 53.4572 46.8617 53.4572Z" fill="white"/>
<path opacity="0.2" d="M31.1607 53.4572C30.5846 53.4572 30.1171 52.9896 30.1171 52.4135V46.1682C30.1171 45.5921 30.5846 45.1246 31.1607 45.1246C31.7368 45.1246 32.2044 45.5921 32.2044 46.1682V52.4135C32.2044 52.9896 31.7368 53.4572 31.1607 53.4572Z" fill="black"/>
<path opacity="0.2" d="M33.3023 37.6394C32.7262 37.6394 32.2587 37.1719 32.2587 36.5957V30.3505C32.2587 29.7744 32.7262 29.3068 33.3023 29.3068C33.8784 29.3068 34.346 29.7744 34.346 30.3505V36.5957C34.346 37.1719 33.8784 37.6394 33.3023 37.6394Z" fill="black"/>
<path opacity="0.2" d="M33.3023 53.4572C32.7262 53.4572 32.2587 52.9896 32.2587 52.4135V46.1682C32.2587 45.5921 32.7262 45.1246 33.3023 45.1246C33.8784 45.1246 34.346 45.5921 34.346 46.1682V52.4135C34.346 52.9896 33.8784 53.4572 33.3023 53.4572Z" fill="black"/>
<path opacity="0.2" d="M44.1314 53.4572C43.5553 53.4572 43.0878 52.9896 43.0878 52.4135V46.1682C43.0878 45.5921 43.5553 45.1246 44.1314 45.1246C44.7075 45.1246 45.1751 45.5921 45.1751 46.1682V52.4135C45.1751 52.9896 44.7075 53.4572 44.1314 53.4572Z" fill="white"/>
<path d="M23.3082 44.6779C32.2793 44.6779 39.5518 37.4054 39.5518 28.4343C39.5518 19.4632 32.2793 12.1907 23.3082 12.1907C14.3371 12.1907 7.06458 19.4632 7.06458 28.4343C7.06458 37.4054 14.3371 44.6779 23.3082 44.6779Z" fill="#DA291C"/>
<path d="M23.3081 45.7215C13.7774 45.7215 6.02087 37.9692 6.02087 28.4343C6.02087 18.8993 13.7732 11.147 23.3081 11.147C32.8431 11.147 40.5954 18.8993 40.5954 28.4343C40.5954 37.9692 32.8389 45.7215 23.3081 45.7215ZM23.3081 13.2385C14.9296 13.2385 8.1082 20.0557 8.1082 28.4384C8.1082 36.8212 14.9254 43.6384 23.3081 43.6384C31.6909 43.6384 38.5081 36.8212 38.5081 28.4384C38.5081 20.0557 31.6909 13.2385 23.3081 13.2385Z" fill="#A82616"/>
<path d="M20.891 18.0644C21.6011 18.0644 22.1768 17.4887 22.1768 16.7786C22.1768 16.0685 21.6011 15.4928 20.891 15.4928C20.1809 15.4928 19.6052 16.0685 19.6052 16.7786C19.6052 17.4887 20.1809 18.0644 20.891 18.0644Z" fill="white"/>
<path d="M25.7252 18.0644C26.4354 18.0644 27.011 17.4887 27.011 16.7786C27.011 16.0685 26.4354 15.4928 25.7252 15.4928C25.0151 15.4928 24.4395 16.0685 24.4395 16.7786C24.4395 17.4887 25.0151 18.0644 25.7252 18.0644Z" fill="white"/>
<path d="M13.6397 21.951C14.3498 21.951 14.9255 21.3753 14.9255 20.6652C14.9255 19.9551 14.3498 19.3794 13.6397 19.3794C12.9296 19.3794 12.3539 19.9551 12.3539 20.6652C12.3539 21.3753 12.9296 21.951 13.6397 21.951Z" fill="white"/>
<path d="M18.4739 21.951C19.184 21.951 19.7597 21.3753 19.7597 20.6652C19.7597 19.9551 19.184 19.3794 18.4739 19.3794C17.7638 19.3794 17.1881 19.9551 17.1881 20.6652C17.1881 21.3753 17.7638 21.951 18.4739 21.951Z" fill="white"/>
<path d="M23.3081 21.951C24.0183 21.951 24.5939 21.3753 24.5939 20.6652C24.5939 19.9551 24.0183 19.3794 23.3081 19.3794C22.598 19.3794 22.0223 19.9551 22.0223 20.6652C22.0223 21.3753 22.598 21.951 23.3081 21.951Z" fill="white"/>
<path d="M28.1465 21.951C28.8566 21.951 29.4323 21.3753 29.4323 20.6652C29.4323 19.9551 28.8566 19.3794 28.1465 19.3794C27.4364 19.3794 26.8607 19.9551 26.8607 20.6652C26.8607 21.3753 27.4364 21.951 28.1465 21.951Z" fill="white"/>
<path d="M32.9809 21.951C33.691 21.951 34.2667 21.3753 34.2667 20.6652C34.2667 19.9551 33.691 19.3794 32.9809 19.3794C32.2707 19.3794 31.6951 19.9551 31.6951 20.6652C31.6951 21.3753 32.2707 21.951 32.9809 21.951Z" fill="white"/>
<path d="M11.2224 25.8376C11.9326 25.8376 12.5082 25.262 12.5082 24.5518C12.5082 23.8417 11.9326 23.2661 11.2224 23.2661C10.5123 23.2661 9.93665 23.8417 9.93665 24.5518C9.93665 25.262 10.5123 25.8376 11.2224 25.8376Z" fill="white"/>
<path d="M16.0568 25.8376C16.7669 25.8376 17.3426 25.262 17.3426 24.5518C17.3426 23.8417 16.7669 23.2661 16.0568 23.2661C15.3467 23.2661 14.771 23.8417 14.771 24.5518C14.771 25.262 15.3467 25.8376 16.0568 25.8376Z" fill="white"/>
<path d="M20.891 25.8376C21.6011 25.8376 22.1768 25.262 22.1768 24.5518C22.1768 23.8417 21.6011 23.2661 20.891 23.2661C20.1809 23.2661 19.6052 23.8417 19.6052 24.5518C19.6052 25.262 20.1809 25.8376 20.891 25.8376Z" fill="white"/>
<path d="M25.7252 25.8376C26.4354 25.8376 27.011 25.262 27.011 24.5518C27.011 23.8417 26.4354 23.2661 25.7252 23.2661C25.0151 23.2661 24.4395 23.8417 24.4395 24.5518C24.4395 25.262 25.0151 25.8376 25.7252 25.8376Z" fill="white"/>
<path d="M30.5637 25.8376C31.2739 25.8376 31.8495 25.262 31.8495 24.5518C31.8495 23.8417 31.2739 23.2661 30.5637 23.2661C29.8536 23.2661 29.278 23.8417 29.278 24.5518C29.278 25.262 29.8536 25.8376 30.5637 25.8376Z" fill="white"/>
<path d="M35.398 25.8376C36.1081 25.8376 36.6838 25.262 36.6838 24.5518C36.6838 23.8417 36.1081 23.2661 35.398 23.2661C34.6879 23.2661 34.1122 23.8417 34.1122 24.5518C34.1122 25.262 34.6879 25.8376 35.398 25.8376Z" fill="white"/>
<path d="M13.6397 29.7201C14.3498 29.7201 14.9255 29.1444 14.9255 28.4343C14.9255 27.7241 14.3498 27.1485 13.6397 27.1485C12.9296 27.1485 12.3539 27.7241 12.3539 28.4343C12.3539 29.1444 12.9296 29.7201 13.6397 29.7201Z" fill="white"/>
<path d="M18.4739 29.7201C19.184 29.7201 19.7597 29.1444 19.7597 28.4343C19.7597 27.7241 19.184 27.1485 18.4739 27.1485C17.7638 27.1485 17.1881 27.7241 17.1881 28.4343C17.1881 29.1444 17.7638 29.7201 18.4739 29.7201Z" fill="white"/>
<path d="M23.3081 29.7201C24.0183 29.7201 24.5939 29.1444 24.5939 28.4343C24.5939 27.7241 24.0183 27.1485 23.3081 27.1485C22.598 27.1485 22.0223 27.7241 22.0223 28.4343C22.0223 29.1444 22.598 29.7201 23.3081 29.7201Z" fill="white"/>
<path d="M23.308 31.4692C24.9842 31.4692 26.343 30.1104 26.343 28.4342C26.343 26.7581 24.9842 25.3993 23.308 25.3993C21.6319 25.3993 20.2731 26.7581 20.2731 28.4342C20.2731 30.1104 21.6319 31.4692 23.308 31.4692Z" fill="#DA291C"/>
<path d="M23.3081 30.4005C24.394 30.4005 25.2743 29.5202 25.2743 28.4343C25.2743 27.3483 24.394 26.468 23.3081 26.468C22.2221 26.468 21.3418 27.3483 21.3418 28.4343C21.3418 29.5202 22.2221 30.4005 23.3081 30.4005Z" fill="#999999"/>
<path opacity="0.2" d="M24.1763 28.0502H23.6963V27.5701C23.6963 27.3572 23.5251 27.186 23.3122 27.186C23.0993 27.186 22.9281 27.3572 22.9281 27.5701V28.0502H22.448C22.2351 28.0502 22.064 28.2213 22.064 28.4342C22.064 28.6471 22.2351 28.8183 22.448 28.8183H22.9281V29.3026C22.9281 29.5155 23.0993 29.6866 23.3122 29.6866C23.5251 29.6866 23.6963 29.5155 23.6963 29.3026V28.8225H24.1763C24.3893 28.8225 24.5604 28.6513 24.5604 28.4384C24.5604 28.2213 24.3893 28.0502 24.1763 28.0502Z" fill="black"/>
<path d="M28.1465 29.7201C28.8566 29.7201 29.4323 29.1444 29.4323 28.4343C29.4323 27.7241 28.8566 27.1485 28.1465 27.1485C27.4364 27.1485 26.8607 27.7241 26.8607 28.4343C26.8607 29.1444 27.4364 29.7201 28.1465 29.7201Z" fill="white"/>
<path d="M32.9809 29.7201C33.691 29.7201 34.2667 29.1444 34.2667 28.4343C34.2667 27.7241 33.691 27.1485 32.9809 27.1485C32.2707 27.1485 31.6951 27.7241 31.6951 28.4343C31.6951 29.1444 32.2707 29.7201 32.9809 29.7201Z" fill="white"/>
<path d="M11.2224 33.6067C11.9326 33.6067 12.5082 33.031 12.5082 32.3209C12.5082 31.6108 11.9326 31.0351 11.2224 31.0351C10.5123 31.0351 9.93665 31.6108 9.93665 32.3209C9.93665 33.031 10.5123 33.6067 11.2224 33.6067Z" fill="white"/>
<path d="M16.0568 33.6067C16.7669 33.6067 17.3426 33.031 17.3426 32.3209C17.3426 31.6108 16.7669 31.0351 16.0568 31.0351C15.3467 31.0351 14.771 31.6108 14.771 32.3209C14.771 33.031 15.3467 33.6067 16.0568 33.6067Z" fill="white"/>
<path d="M20.891 33.6067C21.6011 33.6067 22.1768 33.031 22.1768 32.3209C22.1768 31.6108 21.6011 31.0351 20.891 31.0351C20.1809 31.0351 19.6052 31.6108 19.6052 32.3209C19.6052 33.031 20.1809 33.6067 20.891 33.6067Z" fill="white"/>
<path d="M25.7252 33.6067C26.4354 33.6067 27.011 33.031 27.011 32.3209C27.011 31.6108 26.4354 31.0351 25.7252 31.0351C25.0151 31.0351 24.4395 31.6108 24.4395 32.3209C24.4395 33.031 25.0151 33.6067 25.7252 33.6067Z" fill="white"/>
<path d="M30.5637 33.6067C31.2739 33.6067 31.8495 33.031 31.8495 32.3209C31.8495 31.6108 31.2739 31.0351 30.5637 31.0351C29.8536 31.0351 29.278 31.6108 29.278 32.3209C29.278 33.031 29.8536 33.6067 30.5637 33.6067Z" fill="white"/>
<path d="M35.398 33.6067C36.1081 33.6067 36.6838 33.031 36.6838 32.3209C36.6838 31.6108 36.1081 31.0351 35.398 31.0351C34.6879 31.0351 34.1122 31.6108 34.1122 32.3209C34.1122 33.031 34.6879 33.6067 35.398 33.6067Z" fill="white"/>
<path d="M13.6397 37.4933C14.3498 37.4933 14.9255 36.9176 14.9255 36.2075C14.9255 35.4974 14.3498 34.9217 13.6397 34.9217C12.9296 34.9217 12.3539 35.4974 12.3539 36.2075C12.3539 36.9176 12.9296 37.4933 13.6397 37.4933Z" fill="white"/>
<path d="M18.4739 37.4933C19.184 37.4933 19.7597 36.9176 19.7597 36.2075C19.7597 35.4974 19.184 34.9217 18.4739 34.9217C17.7638 34.9217 17.1881 35.4974 17.1881 36.2075C17.1881 36.9176 17.7638 37.4933 18.4739 37.4933Z" fill="white"/>
<path d="M23.3081 37.4933C24.0183 37.4933 24.5939 36.9176 24.5939 36.2075C24.5939 35.4974 24.0183 34.9217 23.3081 34.9217C22.598 34.9217 22.0223 35.4974 22.0223 36.2075C22.0223 36.9176 22.598 37.4933 23.3081 37.4933Z" fill="white"/>
<path d="M28.1465 37.4933C28.8566 37.4933 29.4323 36.9176 29.4323 36.2075C29.4323 35.4974 28.8566 34.9217 28.1465 34.9217C27.4364 34.9217 26.8607 35.4974 26.8607 36.2075C26.8607 36.9176 27.4364 37.4933 28.1465 37.4933Z" fill="white"/>
<path d="M32.9809 37.4933C33.691 37.4933 34.2667 36.9176 34.2667 36.2075C34.2667 35.4974 33.691 34.9217 32.9809 34.9217C32.2707 34.9217 31.6951 35.4974 31.6951 36.2075C31.6951 36.9176 32.2707 37.4933 32.9809 37.4933Z" fill="white"/>
<path d="M20.891 41.3799C21.6011 41.3799 22.1768 40.8042 22.1768 40.0941C22.1768 39.384 21.6011 38.8083 20.891 38.8083C20.1809 38.8083 19.6052 39.384 19.6052 40.0941C19.6052 40.8042 20.1809 41.3799 20.891 41.3799Z" fill="white"/>
<path d="M25.7252 41.3799C26.4354 41.3799 27.011 40.8042 27.011 40.0941C27.011 39.384 26.4354 38.8083 25.7252 38.8083C25.0151 38.8083 24.4395 39.384 24.4395 40.0941C24.4395 40.8042 25.0151 41.3799 25.7252 41.3799Z" fill="white"/>
<path opacity="0.2" d="M34.7926 39.9187C41.1339 33.5774 41.1339 23.2911 34.7926 16.9498C28.4513 10.6085 18.1649 10.6085 11.8236 16.9498L34.7926 39.9187Z" fill="white"/>
<path d="M23.3081 45.7215C13.7774 45.7215 6.02087 37.9692 6.02087 28.4343C6.02087 18.8993 13.7732 11.147 23.3081 11.147C32.8431 11.147 40.5954 18.8993 40.5954 28.4343C40.5954 37.9692 32.8389 45.7215 23.3081 45.7215ZM23.3081 13.2385C14.9296 13.2385 8.1082 20.0557 8.1082 28.4384C8.1082 36.8212 14.9254 43.6384 23.3081 43.6384C31.6909 43.6384 38.5081 36.8212 38.5081 28.4384C38.5081 20.0557 31.6909 13.2385 23.3081 13.2385Z" fill="#A82616"/>
<path opacity="0.1" d="M7.34845 26.3553C7.28166 26.3553 7.21486 26.3469 7.14807 26.3344C6.58032 26.2259 6.21295 25.6748 6.32149 25.1112C6.68468 23.2535 7.34845 21.4751 8.29193 19.8261C8.57998 19.3252 9.2187 19.154 9.71549 19.442C10.2164 19.7301 10.3876 20.3688 10.0996 20.8656C9.2688 22.3142 8.68434 23.8755 8.36707 25.5078C8.27105 26.0088 7.83689 26.3553 7.34845 26.3553Z" fill="black"/>
<path opacity="0.1" d="M7.41521 32.9512C6.93512 32.9512 6.50096 32.6173 6.39659 32.1288C6.13359 30.9224 6 29.6825 6 28.4343C6 27.8582 6.46756 27.3906 7.04366 27.3906C7.61977 27.3906 8.08733 27.8582 8.08733 28.4343C8.08733 29.5322 8.20422 30.6218 8.43383 31.6821C8.55489 32.2457 8.20005 32.801 7.63647 32.922C7.5655 32.9429 7.49035 32.9512 7.41521 32.9512Z" fill="black"/>
<path opacity="0.1" d="M23.3081 45.7424C16.2738 45.7424 9.99092 41.5385 7.30662 35.0386C7.08536 34.5042 7.34001 33.8947 7.87437 33.6776C8.40455 33.4564 9.01823 33.711 9.23531 34.2454C11.5982 39.9647 17.1212 43.6593 23.3081 43.6593C23.8842 43.6593 24.3518 44.1268 24.3518 44.7029C24.3518 45.279 23.8842 45.7424 23.3081 45.7424Z" fill="black"/>
<path opacity="0.2" d="M39.3931 31.7656C39.343 31.7656 39.2971 31.7615 39.247 31.7573C38.6751 31.678 38.2785 31.1478 38.3578 30.58C38.458 29.8745 38.5081 29.1565 38.5081 28.4426C38.5081 26.7853 38.2451 25.1572 37.7233 23.6042C37.5396 23.0573 37.836 22.4645 38.3829 22.2808C38.9297 22.0971 39.5225 22.3935 39.7062 22.9362C40.299 24.7063 40.5996 26.5557 40.5996 28.4384C40.5996 29.2483 40.5412 30.0666 40.4284 30.8681C40.3533 31.3858 39.9066 31.7656 39.3931 31.7656Z" fill="white"/>
<path opacity="0.2" d="M37.6105 21.7757C37.2389 21.7757 36.8799 21.5753 36.692 21.2288C34.5421 17.2504 30.7849 14.4533 26.3723 13.5474C25.8087 13.4306 25.4455 12.8795 25.5582 12.3159C25.6751 11.7523 26.2262 11.385 26.7897 11.5019C31.8077 12.5288 36.0867 15.7099 38.5289 20.2352C38.8044 20.7404 38.6124 21.3749 38.1073 21.6505C37.9486 21.734 37.7775 21.7757 37.6105 21.7757Z" fill="white"/>
</g>
</g>
<defs>
<filter id="filter0_d_306_1103" x="0" y="0" width="69.1846" height="86.7431" filterUnits="userSpaceOnUse" color-interpolation-filters="sRGB">
<feFlood flood-opacity="0" result="BackgroundImageFix"/>
<feColorMatrix in="SourceAlpha" type="matrix" values="0 0 0 0 0 0 0 0 0 0 0 0 0 0 0 0 0 0 127 0" result="hardAlpha"/>
<feOffset dy="2"/>
<feGaussianBlur stdDeviation="3"/>
<feColorMatrix type="matrix" values="0 0 0 0 0 0 0 0 0 0 0 0 0 0 0 0 0 0 0.2 0"/>
<feBlend mode="normal" in2="BackgroundImageFix" result="effect1_dropShadow_306_1103"/>
<feBlend mode="normal" in="SourceGraphic" in2="effect1_dropShadow_306_1103" result="shape"/>
</filter>
<clipPath id="clip0_306_1103">
<rect width="69.1845" height="86.7431" fill="white"/>
</clipPath>
</defs>
</svg>
