<svg width="61" height="85" viewBox="0 0 61 85" fill="none" xmlns="http://www.w3.org/2000/svg">
<g clip-path="url(#clip0_306_1104)">
<g filter="url(#filter0_d_306_1104)">
<path d="M30.4167 75.0742C17.7106 75.0742 7.40649 64.8061 7.40649 52.1341C7.40649 34.9897 22.2342 26.4454 30.4167 6.50095C38.5993 26.4454 53.427 34.9897 53.427 52.1341C53.427 64.8061 43.1228 75.0742 30.4167 75.0742Z" fill="#857EE7"/>
<path d="M30.4168 76.2389C17.0845 76.2389 6.23828 65.4257 6.23828 52.1341C6.23828 41.7123 11.416 34.5005 17.4116 26.1472C21.4351 20.5426 25.9961 14.188 29.3326 6.05836C29.5102 5.62043 29.9401 5.33624 30.4121 5.33624C30.8841 5.33624 31.314 5.62043 31.4916 6.05836C34.8235 14.188 39.3891 20.538 43.4126 26.1472C49.4082 34.5005 54.5859 41.7123 54.5859 52.1341C54.5953 65.4257 43.7491 76.2389 30.4168 76.2389ZM30.4168 9.43601C27.1223 16.6292 23.0006 22.3736 19.3135 27.5029C13.5516 35.5301 8.57482 42.4624 8.57482 52.1341C8.57482 64.1399 18.3743 73.9095 30.4168 73.9095C42.4593 73.9095 52.2587 64.1399 52.2587 52.1341C52.2587 42.4624 47.2819 35.5301 41.52 27.5029C37.8376 22.3736 33.7113 16.6292 30.4168 9.43601Z" fill="#2A1768"/>
<path opacity="0.3" d="M32.5686 65.7612C35.4368 62.8929 33.899 56.7047 29.1337 51.9394C24.3684 47.1741 18.1801 45.6362 15.3119 48.5045C12.4436 51.3727 13.9815 57.561 18.7468 62.3263C23.5121 67.0916 29.7003 68.6295 32.5686 65.7612Z" fill="white"/>
<path opacity="0.3" d="M29.76 56.92C32.7423 56.92 35.16 54.7441 35.16 52.06C35.16 49.3759 32.7423 47.2 29.76 47.2C26.7776 47.2 24.36 49.3759 24.36 52.06C24.36 54.7441 26.7776 56.92 29.76 56.92Z" fill="white"/>
<path opacity="0.3" d="M24.9 47.2C25.7947 47.2 26.52 46.4747 26.52 45.58C26.52 44.6853 25.7947 43.96 24.9 43.96C24.0053 43.96 23.28 44.6853 23.28 45.58C23.28 46.4747 24.0053 47.2 24.9 47.2Z" fill="white"/>
<path opacity="0.2" d="M30.84 5.08C30.84 42.1486 44.3606 50.3583 30.84 73.12C42.6572 73.12 54.6 62.9318 54.6 50.3583C54.6 33.3472 33.5759 15.7859 30.84 5.08Z" fill="white"/>
<path d="M30.3047 76.36C16.9028 76.36 6 65.4893 6 52.127C6 41.6497 11.2048 34.3995 17.2316 26.0017C21.2762 20.3673 25.8609 13.9789 29.2149 5.80596C29.3934 5.3657 29.8256 5.08 30.3 5.08C30.7744 5.08 31.2066 5.3657 31.3851 5.80596C34.7344 13.9789 39.3238 20.3627 43.3684 26.0017C49.3952 34.3995 54.6 41.6497 54.6 52.127C54.6094 65.4893 43.7066 76.36 30.3047 76.36ZM30.3047 9.20159C26.993 16.4331 22.8498 22.208 19.1435 27.3647C13.3515 35.4345 8.34873 42.4038 8.34873 52.127C8.34873 64.1966 18.1993 74.0182 30.3047 74.0182C42.4101 74.0182 52.2607 64.1966 52.2607 52.127C52.2607 42.4038 47.2579 35.4345 41.4659 27.3647C37.7643 22.208 33.6164 16.4331 30.3047 9.20159Z" fill="#2A1768"/>
<path opacity="0.2" d="M31.013 74.2C30.3214 74.2 29.76 73.645 29.76 72.9611C29.76 72.2773 30.3214 71.7222 31.013 71.7222C32.9878 71.7222 34.9426 71.4794 36.8371 70.9987C37.5038 70.8302 38.1904 71.2267 38.3608 71.8907C38.5312 72.5548 38.1303 73.2287 37.4586 73.3972C35.3636 73.9324 33.1933 74.2 31.013 74.2Z" fill="white"/>
<path opacity="0.2" d="M40.6514 72.04C40.2352 72.04 39.8284 71.8059 39.618 71.3963C39.3141 70.8014 39.5292 70.065 40.0949 69.7481C41.4977 68.9678 42.8209 68.0218 44.0272 66.9343C44.5182 66.4954 45.2523 66.554 45.6778 67.066C46.0986 67.578 46.0425 68.3485 45.5515 68.7874C44.2143 69.987 42.7461 71.0354 41.1984 71.8986C41.0254 71.9961 40.8384 72.04 40.6514 72.04Z" fill="white"/>
<path opacity="0.2" d="M48.1984 65.56C47.9618 65.56 47.7206 65.4882 47.5119 65.34C46.9971 64.9718 46.8858 64.2713 47.2661 63.7684C47.9804 62.8255 48.6205 61.8197 49.1632 60.778C49.4507 60.2257 50.1511 60.0012 50.7216 60.2796C51.2922 60.558 51.5241 61.2315 51.2365 61.7883C50.6335 62.9423 49.9285 64.0603 49.1353 65.102C48.9081 65.4028 48.5556 65.56 48.1984 65.56Z" fill="white"/>
<path opacity="0.2" d="M52.3627 52.6C51.7264 52.6 51.2099 52.0523 51.2099 51.3774C51.2099 46.1203 49.9696 41.3962 47.1845 36.056C46.8756 35.4642 47.0785 34.7209 47.6364 34.3933C48.1943 34.0656 48.8952 34.2808 49.2041 34.8725C52.146 40.5209 53.52 45.7633 53.52 51.3774C53.5154 52.0523 52.999 52.6 52.3627 52.6Z" fill="white"/>
<path opacity="0.2" d="M46.9862 32.08C46.6173 32.08 46.253 31.9067 46.0344 31.5905C44.7456 29.7192 43.3475 27.8609 41.8629 25.89C41.1479 24.937 40.4193 23.9711 39.6861 22.9834C39.3263 22.494 39.4492 21.8182 39.9639 21.476C40.4785 21.1338 41.1889 21.2508 41.5487 21.7402C42.2773 22.7235 43.0014 23.6852 43.7118 24.6338C45.2055 26.6221 46.6218 28.4977 47.9334 30.408C48.2795 30.9061 48.1292 31.5775 47.6055 31.9067C47.4142 32.0194 47.2002 32.08 46.9862 32.08Z" fill="white"/>
<path opacity="0.2" d="M37.2219 18.04C36.8306 18.04 36.4486 17.8511 36.227 17.5054C33.5819 13.4269 31.4978 9.52812 29.8475 5.58786C29.6023 4.99797 29.8899 4.32513 30.4934 4.08549C31.097 3.84585 31.7854 4.12697 32.0306 4.71685C33.629 8.53268 35.6518 12.3163 38.2168 16.2749C38.5657 16.8141 38.4007 17.5238 37.8538 17.8649C37.6557 17.9801 37.4388 18.04 37.2219 18.04Z" fill="white"/>
<path opacity="0.2" d="M18.0825 31C17.831 31 17.5745 30.9345 17.3487 30.8036C16.7689 30.4589 16.6252 29.7781 17.0305 29.285C17.8977 28.2289 18.806 27.151 19.7399 26.0382C22.2593 23.0489 24.8609 19.9549 27.3804 16.407C27.7447 15.892 28.5349 15.7262 29.1404 16.0361C29.7459 16.3459 29.9409 17.0179 29.5766 17.5329C27.0058 21.1506 24.2503 24.4192 21.8232 27.3037C20.8944 28.4078 19.9913 29.4814 19.1292 30.5287C18.8829 30.8385 18.4878 31 18.0825 31Z" fill="black"/>
<path opacity="0.2" d="M14.7941 37.48C14.5913 37.48 14.3837 37.4319 14.1958 37.3261C13.5975 37.004 13.3849 36.2732 13.7162 35.6915C14.27 34.7202 14.888 33.7202 15.6049 32.6336C15.9758 32.0759 16.7372 31.9124 17.3107 32.2682C17.8843 32.624 18.0524 33.3692 17.6865 33.9269C16.9992 34.9751 16.4059 35.9367 15.8769 36.8598C15.6494 37.2588 15.2242 37.48 14.7941 37.48Z" fill="black"/>
<path opacity="0.2" d="M11.4198 51.52C10.8127 51.52 10.3199 50.9912 10.3199 50.3396C10.3199 46.5483 11.0459 42.927 12.5329 39.2679C12.7749 38.6682 13.426 38.3991 13.9803 38.6588C14.5391 38.9185 14.7899 39.6173 14.5479 40.2122C13.162 43.6163 12.5197 46.8316 12.5197 50.3396C12.5197 50.9912 12.0314 51.52 11.4198 51.52Z" fill="black"/>
<path opacity="0.2" d="M23.1481 69.88C22.9736 69.88 22.799 69.8407 22.6341 69.762C17.5133 67.3292 13.4448 62.8567 11.476 57.4947C11.2433 56.8607 11.5633 56.1529 12.1889 55.917C12.8144 55.6811 13.5127 56.0055 13.7455 56.6395C15.496 61.4019 19.1087 65.378 23.6622 67.5405C24.2683 67.8305 24.5302 68.5628 24.2441 69.1772C24.0404 69.6195 23.604 69.88 23.1481 69.88Z" fill="black"/>
<path opacity="0.2" d="M33.0813 69.88C32.5282 69.88 32.0403 69.5204 31.938 69.0086C31.8265 68.4332 32.2448 67.8833 32.8768 67.7818C37.7424 66.9865 42.1294 64.3806 44.9177 60.6241C45.2755 60.1418 46.0005 60.0149 46.5303 60.3406C47.06 60.6664 47.1995 61.3263 46.8416 61.8085C43.7048 66.0346 38.7648 68.9663 33.2857 69.8631C33.216 69.8758 33.151 69.88 33.0813 69.88Z" fill="white"/>
<path opacity="0.2" d="M48.0598 43.96C47.5761 43.96 47.1289 43.6274 46.9737 43.109C46.3121 40.8887 45.3264 38.5901 43.9574 36.0812C43.638 35.4992 43.8205 34.751 44.3635 34.4086C44.9066 34.0663 45.6047 34.2619 45.9242 34.8439C47.3799 37.5093 48.434 39.9693 49.1459 42.3657C49.3375 43.0112 49.0044 43.6959 48.4066 43.9013C48.2925 43.9453 48.1739 43.96 48.0598 43.96Z" fill="white"/>
<path opacity="0.2" d="M42.5715 34.24C42.1743 34.24 41.782 34.0858 41.5467 33.7972C40.2571 32.2276 38.8302 30.6185 37.3199 28.9145L39.3107 27.76L38.3153 28.3372L39.3156 27.7639C40.8406 29.4798 42.2822 31.1048 43.5963 32.706C43.969 33.1607 43.817 33.7735 43.2482 34.0739C43.0373 34.1886 42.802 34.24 42.5715 34.24Z" fill="white"/>
<path opacity="0.2" d="M34.9068 22.36C34.4796 22.36 34.0577 22.1807 33.7961 21.8497C31.3823 18.7558 29.4598 16.0251 27.7563 13.2484C27.4092 12.6875 27.6602 11.9934 28.3117 11.6945C28.9632 11.3957 29.7695 11.6118 30.1167 12.1727C31.7775 14.8758 33.6519 17.5422 36.0122 20.5671C36.4234 21.0958 36.2632 21.8083 35.6491 22.1623C35.4195 22.2956 35.1632 22.36 34.9068 22.36Z" fill="white"/>
</g>
</g>
<defs>
<filter id="filter0_d_306_1104" x="0" y="0" width="60.6" height="84.36" filterUnits="userSpaceOnUse" color-interpolation-filters="sRGB">
<feFlood flood-opacity="0" result="BackgroundImageFix"/>
<feColorMatrix in="SourceAlpha" type="matrix" values="0 0 0 0 0 0 0 0 0 0 0 0 0 0 0 0 0 0 127 0" result="hardAlpha"/>
<feOffset dy="2"/>
<feGaussianBlur stdDeviation="3"/>
<feColorMatrix type="matrix" values="0 0 0 0 0 0 0 0 0 0 0 0 0 0 0 0 0 0 0.2 0"/>
<feBlend mode="normal" in2="BackgroundImageFix" result="effect1_dropShadow_306_1104"/>
<feBlend mode="normal" in="SourceGraphic" in2="effect1_dropShadow_306_1104" result="shape"/>
</filter>
<clipPath id="clip0_306_1104">
<rect width="60.6" height="84.36" fill="white"/>
</clipPath>
</defs>
</svg>
