<svg width="52" height="99" viewBox="0 0 52 99" fill="none" xmlns="http://www.w3.org/2000/svg">
<g clip-path="url(#clip0_306_1105)">
<g filter="url(#filter0_d_306_1105)">
<path d="M25.3622 21.5785C23.6976 21.5785 22.3483 20.2086 22.3483 18.5185V11.4946H14.4795C12.8149 11.4946 11.4656 10.1247 11.4656 8.43465C11.4656 6.74459 12.8149 5.37465 14.4795 5.37465H25.3622C27.0268 5.37465 28.3762 6.74459 28.3762 8.43465V18.5185C28.3762 20.2086 27.0268 21.5785 25.3622 21.5785Z" fill="#999999"/>
<path d="M25.3623 22.7554C23.0624 22.7554 21.1891 20.8535 21.1891 18.5185V12.6716H14.4796C12.1797 12.6716 10.3064 10.7697 10.3064 8.43465C10.3064 6.09963 12.1797 4.19772 14.4796 4.19772H25.3623C27.6621 4.19772 29.5354 6.09963 29.5354 8.43465V18.5185C29.5354 20.8535 27.6621 22.7554 25.3623 22.7554ZM14.4749 6.54686C13.4502 6.54686 12.6202 7.38954 12.6202 8.42994C12.6202 9.47034 13.4502 10.313 14.4749 10.313H22.3437C22.9835 10.313 23.5029 10.8403 23.5029 11.4899V18.5138C23.5029 19.5542 24.3329 20.3969 25.3576 20.3969C26.3824 20.3969 27.2124 19.5542 27.2124 18.5138V8.42994C27.2124 7.38954 26.3824 6.54686 25.3576 6.54686H14.4749Z" fill="#2A1768"/>
<path d="M43.9318 22.7301C43.9318 19.1646 35.7132 16.2764 25.5738 16.2764C15.4344 16.2764 7.21582 19.1646 7.21582 22.7254C7.21582 22.7819 7.22555 22.8383 7.23041 22.8948V75.7713C7.22555 75.8278 7.21582 75.8842 7.21582 75.9407C7.21582 79.5015 15.4344 82.3897 25.5738 82.3897C35.7132 82.3897 43.9318 79.5015 43.9318 75.9407V22.7301Z" fill="#857EE7"/>
<path d="M25.5737 83.5751C16.0859 83.5751 6 80.9033 6 75.9501C6 75.8795 6.00486 75.8042 6.00973 75.7337V22.9512C6 22.8666 6 22.8007 6 22.7349C6 17.7816 16.0859 15.1098 25.5737 15.1098C35.0615 15.1098 45.1475 17.7816 45.1475 22.7349V75.9454C45.1475 80.9033 35.0615 83.5751 25.5737 83.5751ZM25.5737 17.4571C14.9529 17.4571 8.43152 20.5287 8.43152 22.7301L8.44125 22.8242C8.44125 22.8477 8.44125 22.876 8.44125 22.8995V75.776C8.44125 75.7995 8.44125 75.8278 8.44125 75.8513L8.43152 75.9407C8.43152 78.1468 14.9529 81.2184 25.5737 81.2184C36.1946 81.2184 42.7159 78.1468 42.7159 75.9454V22.7301C42.7159 20.5287 36.1946 17.4571 25.5737 17.4571Z" fill="#2A1768"/>
<path d="M43.9318 22.7301C43.9318 19.1646 35.7132 16.2764 25.5738 16.2764C15.4344 16.2764 7.21582 19.1646 7.21582 22.7254C7.21582 22.7819 7.22555 22.8383 7.23041 22.8948V75.7713C7.22555 75.8278 7.21582 75.8842 7.21582 75.9407C7.21582 79.5015 15.4344 82.3897 25.5738 82.3897C35.7132 82.3897 43.9318 79.5015 43.9318 75.9407V22.7301Z" fill="#857EE7"/>
<path d="M25.5737 83.5751C16.0859 83.5751 6 80.9033 6 75.9501C6 75.8795 6.00486 75.8042 6.00973 75.7337V22.9512C6 22.8666 6 22.8007 6 22.7349C6 17.7816 16.0859 15.1098 25.5737 15.1098C35.0615 15.1098 45.1475 17.7816 45.1475 22.7349V75.9454C45.1475 80.9033 35.0615 83.5751 25.5737 83.5751ZM25.5737 17.4571C14.9529 17.4571 8.43152 20.5287 8.43152 22.7301L8.44125 22.8242C8.44125 22.8477 8.44125 22.876 8.44125 22.8995V75.776C8.44125 75.7995 8.44125 75.8278 8.44125 75.8513L8.43152 75.9407C8.43152 78.1468 14.9529 81.2184 25.5737 81.2184C36.1946 81.2184 42.7159 78.1468 42.7159 75.9454V22.7301C42.7159 20.5287 36.1946 17.4571 25.5737 17.4571Z" fill="#2A1768"/>
<path opacity="0.2" d="M39.8 28.3692C39.157 28.3692 38.6352 27.829 38.6352 27.1635V23.5848C37.5217 22.7407 33.1423 20.8163 25.4735 20.8163C24.0013 20.8163 22.5663 20.8887 21.2012 21.0286C20.5583 21.0913 19.9899 20.6089 19.9247 19.9482C19.8594 19.2874 20.3253 18.6942 20.9683 18.6267C22.4079 18.4772 23.9221 18.4 25.4735 18.4C34.0135 18.4 39.5344 20.7054 40.7318 22.3452C40.8855 22.5526 40.9647 22.8083 40.9647 23.0735V27.1635C40.9647 27.829 40.4429 28.3692 39.8 28.3692Z" fill="white"/>
<path opacity="0.2" d="M10.5032 50.5231C9.58604 50.5231 8.84167 49.9983 8.84167 49.3517V25.1098C8.84167 24.4632 9.58604 23.9385 10.5032 23.9385C11.4204 23.9385 12.1648 24.4632 12.1648 25.1098V49.3517C12.1648 49.9983 11.4204 50.5231 10.5032 50.5231Z" fill="black"/>
<path opacity="0.2" d="M10.5032 58.2769C9.58604 58.2769 8.84167 57.7509 8.84167 57.1027V52.805C8.84167 52.1568 9.58604 51.6308 10.5032 51.6308C11.4204 51.6308 12.1648 52.1568 12.1648 52.805V57.1027C12.1648 57.7509 11.4204 58.2769 10.5032 58.2769Z" fill="black"/>
<path opacity="0.2" d="M15.4234 80.4308C15.3153 80.4308 15.2024 80.4167 15.0942 80.3839C14.5205 80.2153 13.9703 80.0373 13.4624 79.8453C11.3602 79.0538 9.94934 77.0023 9.94934 74.7495V61.6632C9.94934 61.0169 10.4761 60.4923 11.1251 60.4923C11.774 60.4923 12.3008 61.0169 12.3008 61.6632V74.7495C12.3008 76.0375 13.1002 77.2037 14.2948 77.6533C14.7462 77.822 15.2353 77.9859 15.7479 78.1358C16.3734 78.3184 16.7308 78.9648 16.5474 79.5877C16.4016 80.1029 15.9313 80.4308 15.4234 80.4308Z" fill="black"/>
<path opacity="0.2" d="M25.305 81.5385C22.5983 81.5385 20.0232 81.3228 17.6504 80.8914C16.9624 80.7674 16.4969 80.0718 16.6133 79.3385C16.7297 78.6051 17.3823 78.1144 18.0703 78.2331C20.3014 78.6375 22.7349 78.837 25.2999 78.837C25.9981 78.837 26.5647 79.4409 26.5647 80.185C26.5647 80.9291 26.0031 81.5385 25.305 81.5385Z" fill="black"/>
<path d="M25.5756 72.0765C22.6418 72.0765 20.2682 69.5887 20.2682 66.525C20.2682 63.4563 22.6466 60.9736 25.5756 60.9736C28.5094 60.9736 30.883 63.4613 30.883 66.525C30.883 69.5887 28.5094 72.0765 25.5756 72.0765Z" fill="white"/>
<path d="M25.5757 73.3178C21.9962 73.3178 19.0814 70.269 19.0814 66.525C19.0814 62.781 21.9962 59.7322 25.5757 59.7322C29.1551 59.7322 32.0699 62.781 32.0699 66.525C32.0699 70.269 29.1598 73.3178 25.5757 73.3178ZM25.5757 62.21C23.3017 62.21 21.455 64.1465 21.455 66.5201C21.455 68.8936 23.3017 70.8301 25.5757 70.8301C27.8496 70.8301 29.6963 68.8936 29.6963 66.5201C29.6963 64.1465 27.8496 62.21 25.5757 62.21Z" fill="#2A1768"/>
<path d="M26.0076 55.7902C30.7834 55.5564 34.0447 50.9995 34.0447 46.1945C34.0447 38.8558 25.5709 35.7876 25.6943 27.8238C25.6943 27.7332 25.5424 27.757 25.4759 27.8238C24.4933 28.8402 17.097 36.8374 17.097 47.2729C17.097 52.1208 21.1275 56.0288 26.0076 55.7902Z" fill="#DA291C"/>
<path d="M25.5757 56.9926C23.0786 56.9926 20.7287 56.0526 18.9105 54.311C16.9736 52.4596 15.9055 49.9545 15.9055 47.2681C15.9055 36.3173 23.729 27.9097 24.6215 26.9888C25.0107 26.588 25.6089 26.4592 26.1121 26.6644C26.5868 26.86 26.8859 27.3228 26.8764 27.8382C26.8195 31.498 28.8086 34.0269 30.9116 36.7038C33.0336 39.4045 35.2268 42.2007 35.2268 46.1897C35.2268 51.9872 31.2012 56.7254 26.0646 56.9783C25.9032 56.9879 25.7371 56.9926 25.5757 56.9926ZM24.7686 30.453C22.3998 33.44 18.2839 39.7147 18.2839 47.2681C18.2839 49.296 19.0909 51.1808 20.5483 52.5837C22.0105 53.9818 23.9236 54.6975 25.9507 54.5973C29.345 54.4303 32.858 51.2429 32.858 46.1897C32.858 43.0262 31.0113 40.6738 29.0507 38.183C27.3417 36.0071 25.4475 33.5975 24.7686 30.453Z" fill="#A82616"/>
<path d="M25.0254 49.2642C23.0316 49.2642 21.4048 47.6314 21.4048 45.6199C21.4048 42.19 22.4878 39.0246 23.7838 36.4658C24.4182 37.3872 25.0798 38.231 25.7006 39.0246C27.5631 41.3964 28.6144 42.824 28.6144 44.5891C28.6144 46.7556 27.3138 49.1548 25.2067 49.2551C25.1478 49.2642 25.0843 49.2642 25.0254 49.2642Z" fill="#EDB900"/>
<path d="M25.0255 50.4045C22.4063 50.4045 20.272 48.2562 20.272 45.6199C20.272 42.4773 21.1148 39.2253 22.7779 35.9459C22.9591 35.5901 23.3126 35.3529 23.7114 35.3255C24.1101 35.2982 24.4908 35.4852 24.7173 35.8136C25.3246 36.6939 25.959 37.5057 26.5707 38.2903C28.551 40.8125 29.7473 42.45 29.7473 44.5891C29.7473 47.3349 28.0706 50.2585 25.2611 50.3954C25.1841 50.3999 25.1025 50.4045 25.0255 50.4045ZM24.0059 38.6916C23.0271 41.0588 22.5332 43.3804 22.5332 45.6199C22.5332 47.043 23.7068 48.1924 25.1524 48.1194C26.5481 48.051 27.4815 46.2402 27.4815 44.5891C27.4815 43.271 26.6704 42.0942 24.8125 39.727C24.5451 39.3849 24.2778 39.0428 24.0059 38.6916Z" fill="#A82616"/>
<path d="M23.8787 68.2462C23.7424 68.2462 23.6061 68.1982 23.4911 68.0974C23.21 67.8528 23.1589 67.4018 23.3761 67.09L25.4206 64.0965C25.6336 63.7798 26.0382 63.7223 26.3151 63.9669C26.5962 64.2116 26.6473 64.6625 26.4301 64.9744L24.3856 67.9679C24.2578 68.1454 24.0704 68.2462 23.8787 68.2462Z" fill="#2A1768"/>
<path opacity="0.1" d="M17.9522 16.1846H26.5647V82.6462H18.1716C12.4067 82.6462 7.73389 78.1964 7.73389 72.7066V25.9105C7.73887 20.5394 12.3119 16.1846 17.9522 16.1846Z" fill="black"/>
<path opacity="0.2" d="M39.3031 67.1385C38.386 67.1385 37.6416 66.6475 37.6416 66.0425V61.5883C37.6416 60.9833 38.386 60.4923 39.3031 60.4923C40.2203 60.4923 40.9647 60.9833 40.9647 61.5883V66.0425C40.9647 66.6475 40.2203 67.1385 39.3031 67.1385Z" fill="white"/>
<path opacity="0.2" d="M39.3031 57.1692C38.386 57.1692 37.6416 56.6342 37.6416 55.9749V33.9943C37.6416 33.3351 38.386 32.8 39.3031 32.8C40.2203 32.8 40.9647 33.3351 40.9647 33.9943V55.9749C40.9647 56.6342 40.2203 57.1692 39.3031 57.1692Z" fill="white"/>
<path d="M35.9801 90.4C35.063 90.4 34.3186 89.9265 34.3186 89.343V84.8108C34.3186 84.2274 35.063 83.7538 35.9801 83.7538C36.8973 83.7538 37.6417 84.2274 37.6417 84.8108V89.343C37.6417 89.9265 36.8973 90.4 35.9801 90.4Z" fill="#2A1768"/>
<path d="M13.8262 90.4C12.909 90.4 12.1647 89.9265 12.1647 89.343V84.8108C12.1647 84.2274 12.909 83.7538 13.8262 83.7538C14.7434 83.7538 15.4877 84.2274 15.4877 84.8108V89.343C15.4877 89.9265 14.7434 90.4 13.8262 90.4Z" fill="#2A1768"/>
<path d="M28.1431 76.8123C29.0816 76.8123 29.8424 75.9857 29.8424 74.9661C29.8424 73.9465 29.0816 73.12 28.1431 73.12C27.2047 73.12 26.4438 73.9465 26.4438 74.9661C26.4438 75.9857 27.2047 76.8123 28.1431 76.8123Z" fill="#2A1768"/>
<path d="M21.8897 76.8123C22.8282 76.8123 23.589 75.9857 23.589 74.9661C23.589 73.9465 22.8282 73.12 21.8897 73.12C20.9512 73.12 20.1904 73.9465 20.1904 74.9661C20.1904 75.9857 20.9512 76.8123 21.8897 76.8123Z" fill="#2A1768"/>
<path d="M44.1914 90.4H7.83023C7.16562 90.4 6.62622 89.6556 6.62622 88.7385C6.62622 87.8213 7.16562 87.0769 7.83023 87.0769H44.1914C44.8561 87.0769 45.3955 87.8213 45.3955 88.7385C45.3955 89.6556 44.8561 90.4 44.1914 90.4Z" fill="#2A1768"/>
<path opacity="0.2" d="M43.7339 63.8154C42.8168 63.8154 42.0724 63.2897 42.0724 62.642V59.4503C42.0724 58.8026 42.8168 58.2769 43.7339 58.2769C44.6511 58.2769 45.3955 58.8026 45.3955 59.4503V62.642C45.3955 63.2897 44.6511 63.8154 43.7339 63.8154Z" fill="white"/>
<path opacity="0.2" d="M43.7339 57.1692C42.8168 57.1692 42.0724 56.6364 42.0724 55.9799V43.9585C42.0724 43.302 42.8168 42.7692 43.7339 42.7692C44.6511 42.7692 45.3955 43.302 45.3955 43.9585V55.9799C45.3955 56.6364 44.6511 57.1692 43.7339 57.1692Z" fill="white"/>
<path opacity="0.2" d="M43.7339 42.7692C42.8168 42.7692 42.0724 42.2374 42.0724 41.5822V28.4486C42.0724 27.7933 42.8168 27.2615 43.7339 27.2615C44.6511 27.2615 45.3955 27.7933 45.3955 28.4486V41.5822C45.3955 42.2374 44.6511 42.7692 43.7339 42.7692Z" fill="white"/>
<path opacity="0.2" d="M28.7801 12.8615H22.1339V16.1846H28.7801V12.8615Z" fill="black"/>
<path opacity="0.2" d="M24.1872 7.32308H13.4345C12.7335 7.32308 12.1647 6.57871 12.1647 5.66154C12.1647 4.74437 12.7335 4 13.4345 4H24.1872C24.8881 4 25.457 4.74437 25.457 5.66154C25.457 6.57871 24.8881 7.32308 24.1872 7.32308Z" fill="white"/>
<path d="M24.9031 67.1385C25.8208 67.1385 26.5647 66.3946 26.5647 65.4769C26.5647 64.5593 25.8208 63.8154 24.9031 63.8154C23.9855 63.8154 23.2416 64.5593 23.2416 65.4769C23.2416 66.3946 23.9855 67.1385 24.9031 67.1385Z" fill="#2A1768"/>
</g>
</g>
<defs>
<filter id="filter0_d_306_1105" x="0" y="0" width="51.3955" height="98.4" filterUnits="userSpaceOnUse" color-interpolation-filters="sRGB">
<feFlood flood-opacity="0" result="BackgroundImageFix"/>
<feColorMatrix in="SourceAlpha" type="matrix" values="0 0 0 0 0 0 0 0 0 0 0 0 0 0 0 0 0 0 127 0" result="hardAlpha"/>
<feOffset dy="2"/>
<feGaussianBlur stdDeviation="3"/>
<feColorMatrix type="matrix" values="0 0 0 0 0 0 0 0 0 0 0 0 0 0 0 0 0 0 0.2 0"/>
<feBlend mode="normal" in2="BackgroundImageFix" result="effect1_dropShadow_306_1105"/>
<feBlend mode="normal" in="SourceGraphic" in2="effect1_dropShadow_306_1105" result="shape"/>
</filter>
<clipPath id="clip0_306_1105">
<rect width="51.3955" height="98.4" fill="white"/>
</clipPath>
</defs>
</svg>
